# xmcd
#
# Track frame offsets: 
#        150
#        16236
#        36708
#        55594
#        70516
#        83717
#        100673
#        118754
#        130059
#        143070
#        159016
#        175304
#        187833
#        204244
#        219722
#
# Disc length: 3176 seconds
#
# Revision: 0
# Processed by: cddbd v1.5.2PL0 Copyright (c) Steve Scherf et al.
# Submitted via: ExactAudioCopy v0.99pb2
#
DISCID=c00c660f
DTITLE=Daniel Norgren - Outskirt
DYEAR=1900
DGENRE=
TTITLE0=Who's Knocking
TTITLE1=Let Me Go
TTITLE2=The Comedian
TTITLE3=Prettiest World
TTITLE4=Purse
TTITLE5=Fivestringed Crooked Red Clara
TTITLE6=Poor Heart's Avenue
TTITLE7=Rattlesnake
TTITLE8=Mean Old Devil Got On
TTITLE9=Before I Go
TTITLE10=Rope
TTITLE11=No One Wants You as You Are
TTITLE12=Long Way Till Tomorrow
TTITLE13=Saddle My Heart
TTITLE14=I Could Even Grow a Moustache for You
EXTD=
EXTT0=
EXTT1=
EXTT2=
EXTT3=
EXTT4=
EXTT5=
EXTT6=
EXTT7=
EXTT8=
EXTT9=
EXTT10=
EXTT11=
EXTT12=
EXTT13=
EXTT14=
PLAYORDER=
